<svg class="svg-icon svg-icon--tv" width="31" height="33" viewBox="0 0 31 33" fill="none" xmlns="http://www.w3.org/2000/svg"><path fill-rule="evenodd" clip-rule="evenodd" d="M0.25 16.6137C0.25 7.5763 7.5763 0.25 16.6137 0.25C22.5694 0.25 27.7811 3.43209 30.6426 8.18524L30.9847 8.7534L22.7337 15.2184V10.7439C22.7337 10.6058 22.6218 10.4939 22.4837 10.4939H9.49452C9.35645 10.4939 9.24452 10.6058 9.24452 10.7439V22.484C9.24452 22.6221 9.35644 22.734 9.49452 22.734H22.4837C22.6218 22.734 22.7337 22.6221 22.7337 22.484V18.0098L30.9844 24.4746L30.6423 25.0428C27.7807 29.7956 22.5692 32.9775 16.6137 32.9775C7.5763 32.9775 0.25 25.6512 0.25 16.6137ZM16.6137 1.75C8.40473 1.75 1.75 8.40473 1.75 16.6137C1.75 24.8228 8.40473 31.4775 16.6137 31.4775C21.7848 31.4775 26.34 28.8372 29.0035 24.8281L24.2337 21.0908V22.484C24.2337 23.4505 23.4502 24.234 22.4837 24.234H9.49452C8.52802 24.234 7.74452 23.4505 7.74452 22.484V10.7439C7.74452 9.7774 8.52802 8.9939 9.49452 8.9939H22.4837C23.4502 8.9939 24.2337 9.7774 24.2337 10.7439V12.1375L29.0038 8.39988C26.3403 4.39047 21.7851 1.75 16.6137 1.75Z" fill="#fff"></path><path fill-rule="evenodd" clip-rule="evenodd" d="M11.242 11.9932H10.7438V12.4914H11.242V11.9932ZM9.74377 10.9932V13.4914H12.242V10.9932H9.74377Z" fill="#fff"></path><path fill-rule="evenodd" clip-rule="evenodd" d="M16.2384 11.9932H15.7402V12.4914H16.2384V11.9932ZM14.7402 10.9932V13.4914H17.2384V10.9932H14.7402Z" fill="#fff"></path><path fill-rule="evenodd" clip-rule="evenodd" d="M21.2346 11.9932H20.7365V12.4914H21.2346V11.9932ZM19.7365 10.9932V13.4914H22.2346V10.9932H19.7365Z" fill="#fff"></path><path fill-rule="evenodd" clip-rule="evenodd" d="M11.242 20.7363H10.7438V21.2345H11.242V20.7363ZM9.74377 19.7363V22.2345H12.242V19.7363H9.74377Z" fill="#fff"></path><path fill-rule="evenodd" clip-rule="evenodd" d="M16.2384 20.7363H15.7402V21.2345H16.2384V20.7363ZM14.7402 19.7363V22.2345H17.2384V19.7363H14.7402Z" fill="#fff"></path><path fill-rule="evenodd" clip-rule="evenodd" d="M21.2346 20.7363H20.7365V21.2345H21.2346V20.7363ZM19.7365 19.7363V22.2345H22.2346V19.7363H19.7365Z" fill="#fff"></path></svg>