<svg class="svg-icon svg-icon--kids" width="24" height="25" fill="none" xmlns="http://www.w3.org/2000/svg"><path d="M22.907 12.493c0 2.982-1.162 5.842-3.23 7.95a10.926 10.926 0 0 1-7.8 3.294 10.926 10.926 0 0 1-7.8-3.293 11.355 11.355 0 0 1-3.074-9.82 11.276 11.276 0 0 1 3.545-6.53 10.894 10.894 0 0 1 6.778-2.817h.537a10.823 10.823 0 0 1 4.224.842 10.992 10.992 0 0 1 3.583 2.429 11.231 11.231 0 0 1 2.395 3.644c.556 1.363.842 2.825.842 4.301z" stroke="#fff" stroke-width="1.5" stroke-miterlimit="10"></path><path d="M10.696 1.691v.134c-.121.612 0-.533-.175 0a10.663 10.663 0 0 1-3.577 4.882 10.895 10.895 0 0 1-5.69 2.19" stroke="#fff" stroke-width="1.56" stroke-miterlimit="10"></path><path d="M12.955 2.413l.294.039c1.863.244 3.632.978 5.133 2.13a11.022 11.022 0 0 1 3.43 4.443c.495.958.7 2.046.59 3.124l-.358-.047c-5.451-.718-10.281-4.282-10.302-9.743" stroke="#fff" stroke-width="1.5" stroke-miterlimit="10"></path><path d="M21.985 8.322l-.222-.025c-3.996-.459-8.025-2.896-9.58-6.38.105.013.977-.13 1.081-.117 1.886.217 3.683.933 5.212 2.077a11.049 11.049 0 0 1 3.509 4.445z" stroke="#fff" stroke-width="1.5" stroke-miterlimit="10"></path><path d="M8.693 14.658c.789 0 1.428-.652 1.428-1.457 0-.804-.64-1.456-1.428-1.456-.789 0-1.428.652-1.428 1.457 0 .804.64 1.456 1.428 1.456zM15.06 14.658c.788 0 1.428-.652 1.428-1.457 0-.804-.64-1.456-1.428-1.456-.789 0-1.428.652-1.428 1.457 0 .804.64 1.456 1.428 1.456zM15.073 17.073a3.29 3.29 0 0 1-.936 2.304c-.6.611-1.413.955-2.26.955-.848 0-1.661-.344-2.26-.955a3.29 3.29 0 0 1-.937-2.303v-.2h6.393v.2z" fill="#fff"></path></svg>